<svg xmlns="http://www.w3.org/2000/svg" viewBox="0 0 1080 1920" width="1080" height="1920">
    <defs>
        <!-- Gradients -->
        <linearGradient id="bg_grad" x1="0%" y1="0%" x2="0%" y2="100%">
            <stop offset="0%" stop-color="#0F0926" />
            <stop offset="100%" stop-color="#1B1A21" />
        </linearGradient>
        
        <linearGradient id="primary_grad" x1="0%" y1="0%" x2="100%" y2="0%">
            <stop offset="0%" stop-color="#D0BCFF" />
            <stop offset="100%" stop-color="#EFB8C8" />
        </linearGradient>

        <linearGradient id="tab_selected_grad" x1="0%" y1="0%" x2="100%" y2="100%">
            <stop offset="0%" stop-color="#2D2146" />
            <stop offset="100%" stop-color="#1F1332" />
        </linearGradient>

        <linearGradient id="freeze_badge_grad" x1="0%" y1="0%" x2="100%" y2="0%">
            <stop offset="0%" stop-color="#E91E63" />
            <stop offset="100%" stop-color="#9C27B0" />
        </linearGradient>

        <!-- Lens frozen image gradient -->
        <linearGradient id="lens_grad" x1="0%" y1="0%" x2="100%" y2="100%">
            <stop offset="0%" stop-color="#1A1230" />
            <stop offset="100%" stop-color="#2D1137" />
        </linearGradient>

        <!-- Fonts -->
        <style>
            .app-title { font-family: 'Inter', 'Segoe UI', sans-serif; font-weight: 800; font-size: 38px; fill: #FFFFFF; letter-spacing: 2px; }
            .heading { font-family: 'Inter', 'Segoe UI', sans-serif; font-weight: 700; font-size: 26px; fill: #FFFFFF; }
            .body-text { font-family: 'Inter', 'Segoe UI', sans-serif; font-weight: 500; font-size: 20px; fill: #E6E1E5; }
            .caption { font-family: 'Inter', 'Segoe UI', sans-serif; font-weight: 400; font-size: 16px; fill: #938F99; }
            .button-text { font-family: 'Inter', 'Segoe UI', sans-serif; font-weight: 700; font-size: 18px; fill: #FFFFFF; }
            .label-selected { font-family: 'Inter', 'Segoe UI', sans-serif; font-weight: 700; font-size: 14px; fill: #D0BCFF; letter-spacing: 1px; }
            .label-unselected { font-family: 'Inter', 'Segoe UI', sans-serif; font-weight: 500; font-size: 14px; fill: #938F99; letter-spacing: 1px; }
            .hud-badge { font-family: 'Inter', 'Segoe UI', sans-serif; font-weight: 700; font-size: 18px; fill: #FFFFFF; }
            .toast-title { font-family: 'Inter', 'Segoe UI', sans-serif; font-weight: 700; font-size: 18px; fill: #FFFFFF; }
            .toast-subtitle { font-family: 'Inter', 'Segoe UI', sans-serif; font-weight: 500; font-size: 14px; fill: #E6E1E5; }
        </style>
    </defs>

    <!-- Background Frame -->
    <rect width="1080" height="1920" fill="url(#bg_grad)" />

    <!-- Outer Phone Mockup Bezel -->
    <rect x="20" y="20" width="1040" height="1880" rx="60" fill="none" stroke="#25212E" stroke-width="12" />
    <!-- Screen Notch/Camera Cutout -->
    <rect x="420" y="45" width="240" height="40" rx="20" fill="#25212E" />

    <!-- 1. HEADER BAR -->
    <g transform="translate(60, 110)">
        <text x="0" y="40" class="app-title">NAGYÍTÓ <tspan fill="#D0BCFF">PRO</tspan></text>
        <text x="0" y="80" class="caption">4. KÉPERNYŐKÉP: Kimerevített kép, vizsgálat remegés nélkül</text>
        
        <!-- Status Bar Mockup -->
        <g transform="translate(800, 20)" fill="#FFFFFF" fill-opacity="0.7">
            <!-- Signal -->
            <rect x="0" y="8" width="5" height="12" rx="1" />
            <rect x="8" y="4" width="5" height="16" rx="1" />
            <rect x="16" y="0" width="5" height="20" rx="1" />
            <!-- Wifi -->
            <path d="M 32,5 A 12,12 0 0,1 52,5 M 36,9 A 7,7 0 0,1 48,9 M 40,14 A 2,2 0 0,1 44,14" fill="none" stroke="#FFFFFF" stroke-opacity="0.7" stroke-width="2.5" />
            <!-- Battery -->
            <rect x="64" y="2" width="30" height="16" rx="3" fill="none" stroke="#FFFFFF" stroke-opacity="0.7" stroke-width="2" />
            <rect x="67" y="5" width="20" height="10" rx="1" />
            <rect x="95" y="7" width="3" height="6" rx="1" />
        </g>
    </g>

    <!-- 2. MAIN VIEWFINDER (Frozen Frame State active) -->
    <g transform="translate(60, 240)">
        <!-- Viewfinder Background with red glowing border indicating paused/frozen state -->
        <rect width="960" height="1050" rx="40" fill="#090514" stroke="#E91E63" stroke-width="4" />
        <clipPath id="viewfinder_clip">
            <rect width="960" height="1050" rx="40" />
        </clipPath>

        <g clip-path="url(#viewfinder_clip)">
            <!-- Grid Lines -->
            <rect width="960" height="1050" fill="#151022" />
            <path d="M0,150 L960,150 M0,300 L960,300 M0,450 L960,450 M0,600 L960,600 M0,750 L960,750 M0,900 L960,900" fill="none" stroke="#FFFFFF" stroke-opacity="0.03" stroke-width="1.5" />

            <!-- Frozen centered content lens -->
            <circle cx="480" cy="525" r="380" fill="url(#lens_grad)" stroke="#E91E63" stroke-width="4" />

            <g transform="translate(480, 525) scale(2.8)" fill="#FFFFFF">
                <!-- High quality frozen text -->
                <text x="0" y="-30" font-family="'Inter', sans-serif" font-weight="900" font-size="16" fill="#EFB8C8" text-anchor="middle">KÉP KIMEREVÍTVE</text>
                <text x="0" y="5" font-family="'Inter', sans-serif" font-weight="700" font-size="12" fill="#FFFFFF" text-anchor="middle">Nincs többé kézremegés!</text>
                <text x="0" y="35" font-family="'Inter', sans-serif" font-weight="500" font-size="10" fill="#D0BCFF" text-anchor="middle">Nagyíts és ments kényelmesen.</text>
            </g>

            <!-- Holographic / Pulsing freeze frame lock overlay -->
            <path d="M480,240 L480,290 M480,760 L480,810 M240,525 L290,525 M710,525 L760,525" fill="none" stroke="#E91E63" stroke-opacity="0.5" stroke-width="3" />
            <circle cx="480" cy="525" r="260" fill="none" stroke="#E91E63" stroke-opacity="0.2" stroke-width="4" />

            <!-- Pulse freeze badge in view -->
            <g transform="translate(320, 60)">
                <rect width="320" height="60" rx="30" fill="url(#freeze_badge_grad)" filter="drop-shadow(0px 4px 10px rgba(233,30,99,0.4))" />
                <!-- Lock Icon -->
                <rect x="35" y="23" width="16" height="18" rx="2" fill="none" stroke="#FFFFFF" stroke-width="3" />
                <path d="M39,23 L39,18 A 4,4 0 0,1 47,18 L47,23" fill="none" stroke="#FFFFFF" stroke-width="2.5" />
                <text x="180" y="38" class="hud-badge" text-anchor="middle">MOZDULATLAN KÉP</text>
            </g>

            <!-- 2.1 POPUP TOAST NOTIFICATION Overlay (Modern bottom-anchored notification) -->
            <g transform="translate(200, 880)">
                <rect width="560" height="110" rx="24" fill="#1B1A21" fill-opacity="0.95" stroke="#D0BCFF" stroke-opacity="0.3" stroke-width="1.5" />
                
                <!-- Success Icon -->
                <circle cx="55" cy="55" r="25" fill="#4CAF50" />
                <path d="M45,55 L52,62 L65,48" fill="none" stroke="#FFFFFF" stroke-width="3" stroke-linecap="round" stroke-linejoin="round" />
                
                <text x="100" y="50" class="toast-title">Kép sikeresen kimerevítve!</text>
                <text x="100" y="75" class="toast-subtitle">Nyugodtan vizsgáld, zoomold és mentsd.</text>
            </g>
        </g>
    </g>

    <!-- 3. CAMERA QUICK ACTIONS OVERLAY (With freeze state toggled - showing PLAY icon to unfreeze) -->
    <g transform="translate(60, 1315)">
        <!-- Flashlight (Off) -->
        <g transform="translate(140, 0)">
            <circle cx="40" cy="40" r="40" fill="#25212E" stroke="#D0BCFF" stroke-opacity="0.2" stroke-width="2" />
            <path d="M40,20 L27,43 L38,43 L35,60 L51,35 L40,35 Z" fill="#938F99" />
        </g>

        <!-- Freeze Frame Button (Center Large with PLAY icon now) -->
        <g transform="translate(390, -15)">
            <circle cx="55" cy="55" r="55" fill="#E91E63" filter="drop-shadow(0px 4px 12px rgba(233,30,99,0.5))" />
            <!-- Play Icon (To resume live stream) -->
            <path d="M45,35 L75,55 L45,75 Z" fill="#FFFFFF" />
        </g>

        <!-- Save Button -->
        <g transform="translate(660, 0)">
            <circle cx="40" cy="40" r="40" fill="#25212E" stroke="#D0BCFF" stroke-opacity="0.2" stroke-width="2" />
            <path d="M40,25 L40,48 M32,40 L40,48 L48,40 M28,55 L52,55" fill="none" stroke="#D0BCFF" stroke-width="4" stroke-linecap="round" stroke-linejoin="round" />
        </g>
    </g>

    <!-- 4. CONTROLS CONTAINER (Keep simple/same as 1st screen to show consistency) -->
    <g transform="translate(60, 1450)">
        <rect width="960" height="250" rx="32" fill="#14111E" stroke="#D0BCFF" stroke-opacity="0.15" stroke-width="2" />

        <!-- 0: ZOOM TAB CONTROLS (Unified Single Slider on frozen frame) -->
        <g transform="translate(50, 40)">
            <!-- Slider Header -->
            <text x="0" y="30" class="heading" font-size="22">Kimerevített kép nagyítása (Scale Frozen)</text>
            <text x="860" y="30" class="heading" font-size="22" fill="#E91E63">1.8x</text>

            <!-- Slider Track -->
            <g transform="translate(0, 70)">
                <rect width="860" height="12" rx="6" fill="#25212E" />
                <rect width="320" height="12" rx="6" fill="#E91E63" />
                <!-- Slider Thumb -->
                <circle cx="320" cy="6" r="22" fill="#FFFFFF" />
                <circle cx="320" cy="6" r="10" fill="#E91E63" />
            </g>

            <!-- Scale Ticks -->
            <g transform="translate(0, 130)" fill="#938F99" font-family="'Inter', sans-serif" font-size="14">
                <text x="0" y="0" text-anchor="start">1.0x (Alap)</text>
                <text x="286" y="0" text-anchor="middle">2.5x</text>
                <text x="572" y="0" text-anchor="middle">5.0x</text>
                <text x="860" y="0" text-anchor="end">10.0x (Max)</text>
            </g>
        </g>
    </g>

    <!-- 5. COMPACT PILL-SHAPED TAB ROW NAVIGATION -->
    <g transform="translate(60, 1740)">
        <rect width="960" height="90" rx="45" fill="#14111E" stroke="#D0BCFF" stroke-opacity="0.1" stroke-width="2" />

        <!-- Tab 0 (Selected: Nagyítás) -->
        <g transform="translate(10, 10)">
            <rect width="220" height="70" rx="35" fill="url(#tab_selected_grad)" stroke="#D0BCFF" stroke-opacity="0.3" stroke-width="1.5" />
            <!-- Zoom Icon -->
            <path d="M90,35 A 8,8 0 1,1 106,35 A 8,8 0 1,1 90,35 M102,41 L112,51" fill="none" stroke="#D0BCFF" stroke-width="3" stroke-linecap="round" />
            <text x="125" y="42" class="label-selected">NAGYÍTÁS</text>
        </g>

        <!-- Tab 1 (Unselected: Szűrők) -->
        <g transform="translate(250, 10)">
            <circle cx="85" cy="35" r="10" fill="none" stroke="#938F99" stroke-width="2.5" />
            <circle cx="95" cy="42" r="10" fill="none" stroke="#938F99" stroke-width="2.5" />
            <circle cx="75" cy="42" r="10" fill="none" stroke="#938F99" stroke-width="2.5" />
            <text x="115" y="42" class="label-unselected">SZŰRŐK</text>
        </g>

        <!-- Tab 2 (Unselected: Korrekció) -->
        <g transform="translate(490, 10)">
            <path d="M75,25 L75,45 M70,30 L80,30 M95,25 L95,45 M90,40 L100,40 M85,35 L105,35" fill="none" stroke="#938F99" stroke-width="2.5" stroke-linecap="round" />
            <text x="115" y="42" class="label-unselected">KORREKCIÓ</text>
        </g>

        <!-- Tab 3 (Unselected: Téma) -->
        <g transform="translate(730, 10)">
            <path d="M80,45 C75,45 70,40 70,35 C70,25 90,20 90,20 C90,20 100,30 100,35 C100,40 95,45 90,45 Z" fill="none" stroke="#938F99" stroke-width="2.5" />
            <text x="115" y="42" class="label-unselected">TÉMA</text>
        </g>
    </g>
</svg>
